<?xml version="1.0" standalone="no"?>
<!DOCTYPE svg PUBLIC "-//W3C//DTD SVG 20010904//EN"
 "http://www.w3.org/TR/2001/REC-SVG-20010904/DTD/svg10.dtd">
<svg version="1.0" xmlns="http://www.w3.org/2000/svg"
 width="478.000000pt" height="478.000000pt" viewBox="0 0 478.000000 478.000000"
 preserveAspectRatio="xMidYMid meet">
<metadata>
Created by potrace 1.14, written by Peter Selinger 2001-2017
</metadata>
<g transform="translate(0.000000,478.000000) scale(0.100000,-0.100000)"
fill="#000000" stroke="none">
<path d="M2085 4754 c-688 -93 -1295 -472 -1679 -1049 -134 -201 -258 -474
-317 -699 -70 -269 -96 -588 -70 -852 37 -370 155 -712 358 -1038 102 -165
186 -270 333 -416 364 -365 821 -595 1345 -677 156 -25 526 -24 685 0 672 106
1264 479 1635 1033 218 326 352 691 395 1079 13 118 13 381 -1 503 -38 350
-174 737 -365 1037 -377 594 -1039 1008 -1736 1084 -132 15 -460 12 -583 -5z
m633 -214 c598 -88 1155 -444 1492 -956 240 -363 360 -761 360 -1190 0 -354
-66 -647 -215 -949 -212 -432 -532 -762 -956 -988 -618 -329 -1388 -329 -2005
-1 -343 182 -610 424 -817 739 -191 292 -310 618 -346 947 -16 141 -13 388 5
530 79 614 437 1183 964 1531 191 126 436 237 646 293 246 65 605 84 872 44z"/>
<path d="M2987 4080 c-3 -8 -10 -37 -17 -65 -21 -90 -70 -176 -140 -246 -54
-53 -89 -77 -181 -122 -63 -31 -147 -65 -188 -76 -40 -11 -75 -22 -78 -24 -2
-3 17 -8 42 -11 121 -19 259 -84 349 -167 87 -79 172 -232 191 -344 10 -55 24
-79 25 -41 0 43 28 143 60 212 62 137 139 224 248 278 49 25 181 61 247 68 22
2 7 9 -58 25 -138 34 -229 84 -317 172 -85 85 -128 162 -159 283 -11 40 -21
66 -24 58z"/>
<path d="M2250 3950 c-181 -26 -355 -88 -497 -177 -175 -109 -277 -208 -388
-373 -142 -213 -205 -419 -205 -675 0 -271 81 -523 233 -729 71 -95 168 -194
260 -263 l67 -51 -110 -92 c-60 -50 -110 -95 -110 -99 0 -14 137 -80 239 -115
183 -64 446 -106 657 -106 201 0 449 38 624 96 111 37 265 113 265 131 0 6
-48 50 -107 98 l-108 87 63 46 c159 119 314 310 387 480 157 364 148 727 -26
1075 -35 69 -49 87 -66 87 -31 0 -188 -101 -188 -121 0 -9 20 -59 45 -112 74
-155 88 -224 88 -417 0 -138 -3 -178 -21 -245 -81 -297 -302 -549 -583 -665
-129 -54 -231 -74 -379 -74 -160 0 -253 21 -396 88 -292 138 -479 364 -556
673 -29 113 -31 340 -5 447 41 167 123 316 240 442 101 108 179 166 302 225
120 57 191 75 350 89 66 6 147 18 180 26 64 17 169 81 223 137 l34 35 -54 15
c-142 40 -327 55 -458 37z"/>
<path d="M1931 3350 c-17 -57 -66 -109 -136 -142 -33 -15 -66 -28 -72 -28 -29
0 -10 -17 33 -28 65 -17 145 -99 169 -172 l19 -55 8 38 c19 92 72 153 158 184
28 10 50 20 50 23 0 3 -19 11 -43 17 -62 17 -123 76 -151 145 l-23 58 -12 -40z"/>
<path d="M2697 2756 c-19 -118 -107 -206 -260 -261 l-60 -22 38 -7 c61 -12
147 -60 190 -108 35 -38 51 -66 93 -168 l11 -25 0 25 c1 33 51 137 86 178 34
41 96 77 158 93 l48 12 -56 23 c-119 48 -179 112 -220 232 l-22 65 -6 -37z"/>
<path d="M1426 1308 c-47 -165 -46 -195 12 -249 82 -78 157 -113 340 -159 228
-56 311 -65 617 -64 241 0 299 3 415 22 176 29 243 46 368 94 79 31 114 51
156 89 78 71 83 93 47 213 -16 54 -32 100 -35 103 -2 3 -49 -13 -103 -35 -140
-57 -310 -109 -432 -132 -428 -80 -836 -39 -1248 125 -61 25 -113 45 -116 45
-3 0 -12 -24 -21 -52z"/>
</g>
</svg>
